<svg
  version="2"
  viewBox="0 0 100 100"
  xmlns="http://www.w3.org/2000/svg"
>
  <style>
    [id] {
      display: none;
    }

    g:target {
      display: block;
    }
    text {
      font-size: 3em;
      text-anchor: middle;
    }
  </style>

  <rect width="100" height="100" fill="transparent"/>

  <g id="first">
    <polygon points="15,25 35,25 35,75 15,75"/>
    <polygon points="35,50 85,25 85,75"/>
  </g>
  <g id="prev">
    <polygon points="15,50 50,25 50,75"/>
    <polygon points="50,50 85,25 85,75"/>
  </g>
  <g id="next">
    <polygon points="15,25 50,50 15,75"/>
    <polygon points="50,25 85,50 50,75"/>
  </g>
  <g id="last">
    <polygon points="15,25 65,50 15,75"/>
    <polygon points="65,25 85,25 85,75 65,75"/>
  </g>
  <g id="filter-on">
    <polygon points="20,15 80,15 55,45 55,85 45,75 45,45"/>
  </g>
  <g id="filter-off">
    <polygon points="20,15 80,15 55,45 55,85 45,75 45,45" fill="transparent" stroke="#000" stroke-width="4"/>
  </g>
  <g id="filter-__">
    <polygon points="20,15 80,15 55,40 55,45 50,48 45,45 45,40" />
    <polygon points="20,35 25,35 80,70 80,75 75,75 20,40"/>
    <polygon points="80,35 75,35 20,70 20,75 25,75 80,40"/>
    <polygon points="50,62 55,65 55,85 45,75 45,65"/>
  </g>
  <g id="unsorted">
    <polygon points="20,10 80,10 50,45" />
    <polygon points="20,90 80,90 50,55" />
  </g>
  <g id="ascending">
    <polygon points="20,45 80,45 50,10" />
  </g>
  <g id="descending">
    <polygon points="20,15 80,15 50,50" />
  </g>
</svg>